<svg xmlns="http://www.w3.org/2000/svg" 
    xmlns:xlink="http://www.w3.org/1999/xlink" viewBox="0 0 413.15 471.41" width="200px">
    <defs>
        <style>.cls-1{fill:url(#linear-gradient);}.cls-2{fill:#fff;}.cls-3{fill:url(#linear-gradient-2);}.cls-4{fill:url(#linear-gradient-3);}.cls-5{fill:url(#linear-gradient-4);}.cls-6{fill:url(#linear-gradient-5);}.cls-7{fill:url(#linear-gradient-6);}.cls-8{fill:url(#linear-gradient-7);}.cls-9{fill:url(#linear-gradient-8);}.cls-10{fill:url(#linear-gradient-9);}.cls-11{fill:url(#linear-gradient-10);}.cls-12{fill:url(#linear-gradient-11);}.cls-13{fill:url(#linear-gradient-12);}.cls-14{fill:#fff2df;}.cls-15{fill:#ea1f25;}.cls-16{fill:url(#linear-gradient-13);}.cls-17{fill:url(#linear-gradient-14);}.cls-18{fill:url(#linear-gradient-15);}.cls-19{fill:url(#linear-gradient-16);}.cls-20{fill:url(#linear-gradient-17);}.cls-21{fill:url(#linear-gradient-18);}.cls-22{fill:url(#linear-gradient-19);}.cls-23{fill:url(#linear-gradient-20);}.cls-24{fill:url(#linear-gradient-21);}.cls-25{fill:url(#linear-gradient-22);}</style>
        <linearGradient id="linear-gradient" x1="196.02" y1="332.18" x2="609.17" y2="332.18" gradientUnits="userSpaceOnUse">
            <stop offset="0" stop-color="#1b75bb"/>
            <stop offset="0.99" stop-color="#2b388f"/>
        </linearGradient>
        <linearGradient id="linear-gradient-2" x1="452.61" y1="552.46" x2="446.36" y2="609.59" gradientTransform="translate(91.44 955.35) rotate(-117.98)" gradientUnits="userSpaceOnUse">
            <stop offset="0" stop-color="#bbbdbf"/>
            <stop offset="0.99" stop-color="#6d6e70"/>
        </linearGradient>
        <linearGradient id="linear-gradient-3" x1="110.92" y1="448.12" x2="104.68" y2="505.25" gradientTransform="translate(890.58 406.62) rotate(122.02)" xlink:href="#linear-gradient-2"/>
        <linearGradient id="linear-gradient-4" x1="396.13" y1="194.72" x2="386.47" y2="283.12" xlink:href="#linear-gradient"/>
        <linearGradient id="linear-gradient-5" x1="400.16" y1="213.73" x2="387.75" y2="327.24" xlink:href="#linear-gradient"/>
        <linearGradient id="linear-gradient-6" x1="385.48" y1="251.63" x2="449.85" y2="251.63" xlink:href="#linear-gradient"/>
        <linearGradient id="linear-gradient-7" x1="406.63" y1="239.67" x2="409.52" y2="128.05" xlink:href="#linear-gradient"/>
        <linearGradient id="linear-gradient-8" x1="372.14" y1="254.32" x2="382.38" y2="319.45" xlink:href="#linear-gradient"/>
        <linearGradient id="linear-gradient-9" x1="386.62" y1="276.33" x2="447.49" y2="276.33" xlink:href="#linear-gradient"/>
        <linearGradient id="linear-gradient-10" x1="371.82" y1="204.54" x2="365.58" y2="261.66" gradientTransform="translate(16.09 -11.23) rotate(2.02)" xlink:href="#linear-gradient-2"/>
        <linearGradient id="linear-gradient-11" x1="256.67" y1="256.88" x2="545.85" y2="256.88" xlink:href="#linear-gradient"/>
        <linearGradient id="linear-gradient-12" x1="419.85" y1="375.46" x2="442.46" y2="375.46" xlink:href="#linear-gradient"/>
        <linearGradient id="linear-gradient-13" x1="391.92" y1="374.95" x2="416.91" y2="374.95" xlink:href="#linear-gradient"/>
        <linearGradient id="linear-gradient-14" x1="365.45" y1="375.52" x2="390.76" y2="375.52" xlink:href="#linear-gradient"/>
        <linearGradient id="linear-gradient-15" x1="352.27" y1="425.93" x2="376.12" y2="425.93" xlink:href="#linear-gradient"/>
        <linearGradient id="linear-gradient-16" x1="456.63" y1="425.93" x2="481.22" y2="425.93" xlink:href="#linear-gradient"/>
        <linearGradient id="linear-gradient-17" x1="376.8" y1="425.65" x2="401.78" y2="425.65" xlink:href="#linear-gradient"/>
        <linearGradient id="linear-gradient-18" x1="429.58" y1="426.41" x2="455.3" y2="426.41" xlink:href="#linear-gradient"/>
        <linearGradient id="linear-gradient-19" x1="326.01" y1="425.68" x2="352.35" y2="425.68" xlink:href="#linear-gradient"/>
        <linearGradient id="linear-gradient-20" x1="402.14" y1="426.65" x2="429.54" y2="426.65" xlink:href="#linear-gradient"/>
        <linearGradient id="linear-gradient-21" x1="303.78" y1="425.27" x2="326.39" y2="425.27" xlink:href="#linear-gradient"/>
        <linearGradient id="linear-gradient-22" x1="482.06" y1="426.62" x2="504.66" y2="426.62" xlink:href="#linear-gradient"/>
    </defs>
    <title>logo</title>
    <g id="Layer_2" data-name="Layer 2">
        <path class="cls-1" d="M608.66,172.92l-1.28-7.6-8.78-1.78c-1.37-.29-2.67-.57-4-.78A539.24,539.24,0,0,1,500,137.67c-27.47-9.94-56.34-22.63-88.28-38.81-6.33-3.21-12.35-3.18-18.39.09s-12.22,6.21-18.78,9.35c-50.25,24-93.74,39.61-136.87,49.14-7.46,1.65-15,3.1-22.57,4.58l-10.68,2.09-8.36,1.67,0,10.33c0,1.51,0,2.94,0,4.36.34,6.77.62,13.53.9,20.3.63,15.37,1.29,31.26,2.66,46.95a454.39,454.39,0,0,0,25.1,113.8c31.58,87.89,88.17,156.27,168.17,203.24a19,19,0,0,0,9.84,3.12,17,17,0,0,0,8.69-2.52c83.72-49.24,141.71-120.9,172.36-213,17.51-52.59,25.8-110,25.36-175.39A20.11,20.11,0,0,0,608.66,172.92Zm-44.6,172.86q-24.28,73-72.48,127.55H313.74c-29.95-34-53.21-73.67-69.44-118.84a433.63,433.63,0,0,1-24-108.59c-1.33-15.21-2-30.85-2.6-46-.24-5.7-.47-11.39-.74-17.08l2.05-.4c7.79-1.51,15.46-3,23.09-4.69,44.72-9.88,89.63-26,141.81-50.9,6.08-2.91,12.35-5.91,18.66-9.28,32.56,16.49,62.1,29.46,90.28,39.66a560.91,560.91,0,0,0,95.47,25.56C588.29,243.54,580.32,296.91,564.06,345.78Z" transform="translate(-196.02 -96.47)"/>
        <path class="cls-2" d="M401.89,490.43a27.86,27.86,0,1,0,27.85,27.85A27.88,27.88,0,0,0,401.89,490.43Zm4.61,2.6-19.19,11A3.44,3.44,0,1,0,388.4,506l21.22-12.21a25.76,25.76,0,0,1,14,10.81L404.86,515.4a3.39,3.39,0,0,0-2.25-.85,3.46,3.46,0,0,0-3.45,3.45,3.39,3.39,0,0,0,.06.64l-20.08,11.55a25.68,25.68,0,0,1-2.5-7.21l31.23-18a3.44,3.44,0,1,0-1.13-1.92l-30.43,17.5A25.69,25.69,0,0,1,406.5,493Zm-23.29,13.39a1.81,1.81,0,1,1,1.17,1.9A1.78,1.78,0,0,1,383.21,506.42ZM400.79,518a2.4,2.4,0,0,1,0-.28,1.82,1.82,0,0,1,1.79-1.54,1.85,1.85,0,0,1,.66.13,1.82,1.82,0,0,1,1.15,1.69,1.79,1.79,0,0,1,0,.23,1.8,1.8,0,0,1-1.79,1.58,1.87,1.87,0,0,1-.71-.14A1.82,1.82,0,0,1,400.79,518Zm11.11-15.3a1.81,1.81,0,0,1-3.58-.51,1.82,1.82,0,0,1,2.51-1.44A1.78,1.78,0,0,1,411.9,502.7Zm-13.88,41,18.39-10.58a3.44,3.44,0,1,0-1.15-1.91L394.79,543a25.77,25.77,0,0,1-14.53-10.84l20.07-11.54a3.44,3.44,0,0,0,5.66-3.26l18.73-10.78a25.64,25.64,0,0,1,2.43,7.19L396.62,531.3a3.44,3.44,0,1,0,1.11,1.93l29.74-17.11A25.71,25.71,0,0,1,398,543.68Zm22.4-12.89a1.81,1.81,0,1,1-1-2A1.79,1.79,0,0,1,420.42,530.79Zm-27.87,2.85a1.81,1.81,0,1,1,1.12,1.92A1.78,1.78,0,0,1,392.55,533.64Z" transform="translate(-196.02 -96.47)"/>
        <path class="cls-3" d="M370.93,275.61c4.87,16.76,24.87,32,44.73,17.6C397.74,312.66,369,296.47,370.93,275.61Z" transform="translate(-196.02 -96.47)"/>
        <path class="cls-4" d="M431.78,270.05c12.08-12.6,15.25-37.53-7.12-47.55C450.46,228.3,450.8,261.26,431.78,270.05Z" transform="translate(-196.02 -96.47)"/>
        <path class="cls-5" d="M358.38,250.81c-8.52-20.81,12.94-44.52,37-33,6.6,3.15,12.39,9.56,15.75,20.74L402.06,242,429,254.86c1.22-25.22-9.47-38.45-22.88-43.54-35.35-13.37-66.1,23.46-51,51.19A35.7,35.7,0,0,1,358.38,250.81Z" transform="translate(-196.02 -96.47)"/>
        <path class="cls-6" d="M416.58,293.3c-13.76,17.8-45,11.06-47.05-15.56-.57-7.29,2.09-15.51,10.09-24l7.46,6.17-2.31-29.77c-22.44,11.56-28.55,27.43-26.26,41.6,6.1,37.29,53.38,45.51,69.84,18.55A35.73,35.73,0,0,1,416.58,293.3Z" transform="translate(-196.02 -96.47)"/>
        <path class="cls-7" d="M415.78,213a35.92,35.92,0,0,1,8.51,8.68c22.29,3,32.08,33.47,10,48.53-6,4.14-14.47,5.95-25.83,3.27l1.61-9.55-24.62,16.88c21.22,13.66,38,11,49.14,1.95C463.88,258.81,447.35,213.76,415.78,213Z" transform="translate(-196.02 -96.47)"/>
        <path class="cls-8" d="M428.26,253.8l.15.08c1-28.64-13.62-38.59-22.53-42a41.75,41.75,0,0,0-14.8-2.79,37.7,37.7,0,0,0-5.83.49A58,58,0,0,1,428.26,253.8Z" transform="translate(-196.02 -96.47)"/>
        <path class="cls-9" d="M366.06,273a57,57,0,0,1,18.2-41.43l0-.44c-25.32,13.42-26.6,31.1-25.08,40.5a39.7,39.7,0,0,0,10.94,22A55.76,55.76,0,0,1,366.06,273Z" transform="translate(-196.02 -96.47)"/>
        <path class="cls-10" d="M404.24,283.21a55.83,55.83,0,0,1-17.19-2.73l-.43.29c9.4,5.9,18.43,8.89,26.84,8.89h0a32.13,32.13,0,0,0,20.77-7.41A40,40,0,0,0,447.49,263,57.12,57.12,0,0,1,404.24,283.21Z" transform="translate(-196.02 -96.47)"/>
        <path class="cls-11" d="M396.54,220.13c-17-4.16-40.13,5.55-37.61,29.94C351,224.82,379.42,208.05,396.54,220.13Z" transform="translate(-196.02 -96.47)"/>
        <path class="cls-12" d="M401.21,330a73.18,73.18,0,0,1-63.71-37.26H309.92l-11.21,13.47s0,0-.06.06a1.73,1.73,0,0,1-.61.47h0a2,2,0,0,1-.76.19H280.87a10.08,10.08,0,1,1,.58-3.88H296.3l11.21-13.48.06-.06a1.7,1.7,0,0,1,.61-.46,1.94,1.94,0,0,1,.76-.19h26.52a73.16,73.16,0,0,1-5.7-47.61H306.51L300,252.65a1.07,1.07,0,0,1-.13.19,1.86,1.86,0,0,1-.58.54,2,2,0,0,1-.8.26H278.17a1.92,1.92,0,0,1-1.38-.85,1.71,1.71,0,0,1-.13-.23L270.19,240H258.61a1.94,1.94,0,0,1,0-3.88h12.72a.88.88,0,0,1,.28,0,1.81,1.81,0,0,1,.76.26,1.87,1.87,0,0,1,.61.58,1.76,1.76,0,0,1,.14.23l6.46,12.58h17.55l6.57-11.38a1.18,1.18,0,0,1,.11-.19,1.78,1.78,0,0,1,.61-.55,1.89,1.89,0,0,1,.78-.25h25.51a73,73,0,0,1,9.71-21.14H315.17a2,2,0,0,1-1.41-.6l-18.2-19.15H259.81a1.94,1.94,0,0,1,0-3.88h36.58a2,2,0,0,1,1.41.6L316,212.37h27.21a73.08,73.08,0,0,1,116,0h29.87l14.49-19,.08-.1a1.78,1.78,0,0,1,.59-.47,2,2,0,0,1,.81-.21h23.39a8.1,8.1,0,1,1,0,3.88H506.09l-14.5,19a.76.76,0,0,1-.08.11h0a1.79,1.79,0,0,1-.6.46,1.75,1.75,0,0,1-.78.21H462a72.75,72.75,0,0,1,12.34,40.62,73.53,73.53,0,0,1-.68,10h47.41a9.39,9.39,0,1,1,0,3.88H473a73.42,73.42,0,0,1-3.62,12.54H492a1.92,1.92,0,0,1,1.5.7l15.63,19.05h34.8a1.94,1.94,0,1,1,0,3.88H508.18a2,2,0,0,1-1.49-.71l-15.63-19.05h-23.3A73.24,73.24,0,0,1,401.21,330Zm0-142.39a69.25,69.25,0,1,0,68.25,81.08,1.67,1.67,0,0,1,.06-.39,69.26,69.26,0,0,0-68.31-80.69ZM271.38,297.34a6.21,6.21,0,1,0,6.21,6.21A6.22,6.22,0,0,0,271.38,297.34Zm258.88-34a5.52,5.52,0,1,0,5.51,5.52A5.52,5.52,0,0,0,530.26,263.31Zm6-73a4.24,4.24,0,1,0,4.23,4.24A4.23,4.23,0,0,0,536.31,190.32ZM320.24,277h-8.6a1.94,1.94,0,0,1,0-3.88h8.6a1.94,1.94,0,0,1,0,3.88Zm-17.69,0H294a1.94,1.94,0,0,1,0-3.88h8.6a1.94,1.94,0,0,1,0,3.88Zm-17.68,0h-8.6a1.94,1.94,0,0,1,0-3.88h8.6a1.94,1.94,0,0,1,0,3.88Zm257.87-41.72h-8.6a1.94,1.94,0,1,1,0-3.88h8.6a1.94,1.94,0,0,1,0,3.88Zm-17.7,0h-8.59a1.94,1.94,0,0,1,0-3.88H525a1.94,1.94,0,1,1,0,3.88Zm-17.69,0h-8.58a1.94,1.94,0,0,1,0-3.88h8.58a1.94,1.94,0,1,1,0,3.88Zm-17.68,0h-8.6a1.94,1.94,0,0,1,0-3.88h8.6a1.94,1.94,0,0,1,0,3.88Z" transform="translate(-196.02 -96.47)"/>
        <path class="cls-13" d="M442.46,387.62a3.63,3.63,0,0,0-1.79-3c-.21-.21-1.83-1.48-2.08-1.64a4.2,4.2,0,0,0-.7-.54,8.4,8.4,0,0,0-2.91-1.65h2.47a3.79,3.79,0,0,0,3.91-3.73,3.69,3.69,0,0,0-1.8-3.08,3.73,3.73,0,0,0-.7-.54c-.21-.21-1.82-1.48-2.08-1.64a4.57,4.57,0,0,0-.69-.54,3.87,3.87,0,0,0-1.82-1h3.87a3.66,3.66,0,0,0,2.12-6.81c-.2-.2-2.52-2-2.77-2.17a6.92,6.92,0,0,0-3.51-1.7h-9.93a4.15,4.15,0,0,0-4.2,4v20.63a3.6,3.6,0,0,0,1.71,3.24,4.2,4.2,0,0,0,.7.54,3.37,3.37,0,0,0,.69.54c.2.21,1.82,1.48,2.08,1.64a5.16,5.16,0,0,0,3.77,1.29h9.71A3.87,3.87,0,0,0,442.46,387.62Z" transform="translate(-196.02 -96.47)"/>
        <path class="cls-14" d="M434.35,386.74h-9.71c-1.8,0-3.41-.62-3.41-2.6V363.51a2.79,2.79,0,0,1,2.82-2.6H434a2.52,2.52,0,0,1,2.57,2.38,2.4,2.4,0,0,1-2.57,2.27h-7.62v5.9h6.93a2.47,2.47,0,0,1,2.53,2.31,2.4,2.4,0,0,1-2.53,2.34h-6.93v6h8a2.34,2.34,0,1,1,0,4.65Z" transform="translate(-196.02 -96.47)"/>
        <path class="cls-15" d="M422.51,364.79a2.78,2.78,0,0,1,2.82-2.6h9.93a2.73,2.73,0,0,1,1.11.24,2.61,2.61,0,0,0-2.39-1.52h-9.93a2.79,2.79,0,0,0-2.82,2.6v20.63a2.26,2.26,0,0,0,1.44,2.25,2.86,2.86,0,0,1-.16-1Z" transform="translate(-196.02 -96.47)"/>
        <path class="cls-15" d="M434.57,372.74a2.74,2.74,0,0,1,1.09.24,2.6,2.6,0,0,0-2.37-1.52h-6.93l1.28,1.28Z" transform="translate(-196.02 -96.47)"/>
        <path class="cls-15" d="M435.63,383.37a2.67,2.67,0,0,1,1.13.25,2.61,2.61,0,0,0-2.41-1.53h-8l1.28,1.28Z" transform="translate(-196.02 -96.47)"/>
        <path class="cls-16" d="M415.09,362.74a4,4,0,0,0-.69-.54,3.78,3.78,0,0,0-.7-.55,4,4,0,0,0-.69-.54,4.07,4.07,0,0,0-.69-.55,4.2,4.2,0,0,0-.7-.54,4.12,4.12,0,0,0-2.86-1.17H395.87a4,4,0,0,0-3.95,3.73,3.63,3.63,0,0,0,1.78,3.08,3.35,3.35,0,0,0,.7.54,3.71,3.71,0,0,0,.69.55,4,4,0,0,0,.69.54,3.78,3.78,0,0,0,.7.55,3.66,3.66,0,0,0,.69.54,4,4,0,0,0,1.2.81v14.86a3.66,3.66,0,0,0,1.79,3.12,3.78,3.78,0,0,0,.7.55,4.12,4.12,0,0,0,.69.54,4,4,0,0,0,.69.54,3.78,3.78,0,0,0,.7.55,3.66,3.66,0,0,0,.69.54,4,4,0,0,0,2.84,1.15,3.89,3.89,0,0,0,3.95-3.72V369.53h2.5a3.9,3.9,0,0,0,4-3.69A3.72,3.72,0,0,0,415.09,362.74Z" transform="translate(-196.02 -96.47)"/>
        <path class="cls-14" d="M399.75,364.89h-3.88a2.44,2.44,0,0,1-2.57-2.31,2.66,2.66,0,0,1,2.57-2.35h12.89a2.55,2.55,0,0,1,2.61,2.35,2.52,2.52,0,0,1-2.61,2.31h-3.88v19.16a2.57,2.57,0,0,1-5.13,0Z" transform="translate(-196.02 -96.47)"/>
        <path class="cls-15" d="M401,366.17l-1.28-1.28v19.16a2.38,2.38,0,0,0,1.45,2.11,2.12,2.12,0,0,1-.17-.83Z" transform="translate(-196.02 -96.47)"/>
        <path class="cls-15" d="M397.15,361.51H410a2.74,2.74,0,0,1,1.16.27,2.7,2.7,0,0,0-2.44-1.55H395.87a2.66,2.66,0,0,0-2.57,2.35,2.27,2.27,0,0,0,1.44,2.07,2.1,2.1,0,0,1-.16-.79A2.66,2.66,0,0,1,397.15,361.51Z" transform="translate(-196.02 -96.47)"/>
        <path class="cls-17" d="M388.94,363.15a3.57,3.57,0,0,0-.69-.54,166.47,166.47,0,0,1-2.08-1.64,4.57,4.57,0,0,0-.69-.54,4.14,4.14,0,0,0-2.9-1.17,3.86,3.86,0,0,0-3.9,3.8V378c0,1.63-.56,2.4-1.18,2.76V366.33a3.79,3.79,0,0,0-1.84-3.2,3.57,3.57,0,0,0-.69-.54,4.07,4.07,0,0,0-.69-.55,4.65,4.65,0,0,0-.7-.54,4.07,4.07,0,0,0-.69-.55,4.57,4.57,0,0,0-.69-.54,4,4,0,0,0-2.77-1.15,3.85,3.85,0,0,0-4,3.8V378a10.13,10.13,0,0,0,4.08,8.59,8.88,8.88,0,0,0,.7.55q.33.28.69.54c.22.19.45.38.69.55s.46.37.7.54.45.37.69.54a10.78,10.78,0,0,0,7.18,2.46c6.33,0,10.58-4.22,10.58-10.5V366.33A3.74,3.74,0,0,0,388.94,363.15Z" transform="translate(-196.02 -96.47)"/>
        <path class="cls-14" d="M376,387.14c-5.89,0-9.19-3.89-9.19-9.13V363.06a2.46,2.46,0,0,1,2.6-2.42,2.52,2.52,0,0,1,2.53,2.42V378c0,2.64,1.28,4.47,4.06,4.47s4-1.87,4-4.47V363.06a2.49,2.49,0,0,1,2.52-2.42,2.54,2.54,0,0,1,2.64,2.42V378C385.22,383.29,381.81,387.14,376,387.14Z" transform="translate(-196.02 -96.47)"/>
        <path class="cls-15" d="M368.11,364.34a2.46,2.46,0,0,1,2.6-2.42,2.49,2.49,0,0,1,1.05.24,2.57,2.57,0,0,0-2.33-1.52,2.46,2.46,0,0,0-2.6,2.42V378a8.93,8.93,0,0,0,3.17,7.24,9.48,9.48,0,0,1-1.89-6Z" transform="translate(-196.02 -96.47)"/>
        <path class="cls-15" d="M377.3,383.76c2.75,0,4-1.87,4-4.47v-15a2.49,2.49,0,0,1,2.52-2.42,2.84,2.84,0,0,1,1.18.26,2.65,2.65,0,0,0-2.46-1.54,2.49,2.49,0,0,0-2.52,2.42V378c0,2.6-1.29,4.47-4,4.47a4.31,4.31,0,0,1-2.16-.5A3.66,3.66,0,0,0,377.3,383.76Z" transform="translate(-196.02 -96.47)"/>
        <path class="cls-18" d="M376.12,436.87a3.53,3.53,0,0,0-1.73-3,3.35,3.35,0,0,0-.7-.54c-.21-.21-1.82-1.48-2.08-1.64a4,4,0,0,0-.69-.54,3.89,3.89,0,0,0-2.76-1.12,3.44,3.44,0,0,0-2.13.65l-.15.09-.4.24a3.93,3.93,0,0,1-1.15.52c0-.11,0-.22,0-.34v-7.25c0-3.14,1.11-3.75,3-3.75a4.06,4.06,0,0,1,2.33.68l.35.21.17.11a3.5,3.5,0,0,0,2.13.65,3.7,3.7,0,0,0,3.8-3.58,4.22,4.22,0,0,0-2.1-3.42c-.21-.19-2.53-2-2.77-2.17a6.28,6.28,0,0,0-.7-.55c-1.7-1.54-4.7-2.43-7.55-2.43-6.82,0-10.73,4-10.73,11v7.26c0,4.18,1.41,7.29,4,9.12a7.63,7.63,0,0,0,.7.54c.22.19.45.38.69.55s.45.37.69.54a7.63,7.63,0,0,0,.7.54,7.23,7.23,0,0,0,.69.55,11,11,0,0,0,7.42,2.4C371.47,442.17,376.12,440.15,376.12,436.87Z" transform="translate(-196.02 -96.47)"/>
        <path class="cls-14" d="M358.78,427.93c0,3.15,1.1,5.13,4.4,5.13a5.42,5.42,0,0,0,3-.88l.37-.22a2.38,2.38,0,0,1,1.57-.55,2.3,2.3,0,0,1,2.42,2.2c0,2.12-3.7,3.92-7.58,3.92-6.42,0-9.35-3.81-9.35-9.6v-7.26c0-5.79,2.93-9.6,9.35-9.6,3.88,0,7.58,1.8,7.58,3.92a2.31,2.31,0,0,1-2.42,2.2,2.38,2.38,0,0,1-1.57-.55l-.37-.22a5.34,5.34,0,0,0-3-.88c-3.3,0-4.4,2-4.4,5.13Z" transform="translate(-196.02 -96.47)"/>
        <path class="cls-15" d="M354.93,422c0-5.79,2.93-9.6,9.35-9.6a11.32,11.32,0,0,1,6,1.6c-.95-1.64-4-2.88-7.28-2.88-6.42,0-9.35,3.81-9.35,9.6v7.26c0,3.41,1,6.14,3.17,7.8a10.51,10.51,0,0,1-1.89-6.52Z" transform="translate(-196.02 -96.47)"/>
        <path class="cls-15" d="M364.46,434.34a5.42,5.42,0,0,0,3-.88l.37-.22a2.38,2.38,0,0,1,1.57-.55,2.75,2.75,0,0,1,1,.19,2.4,2.4,0,0,0-2.29-1.47,2.38,2.38,0,0,0-1.57.55l-.37.22a5.42,5.42,0,0,1-3,.88,5,5,0,0,1-2.43-.53C361.4,433.68,362.56,434.34,364.46,434.34Z" transform="translate(-196.02 -96.47)"/>
        <path class="cls-19" d="M460.63,437.05c.22.19.46.37.7.54s.45.38.69.55.45.37.69.54.46.37.7.54a7.23,7.23,0,0,0,.69.55,11,11,0,0,0,7.42,2.4c4.67,0,9.7-2,9.7-6.29v-8.09a3.69,3.69,0,0,0-1.78-3.28c-.2-.2-1.82-1.47-2.08-1.63a3.41,3.41,0,0,0-.69-.55,4.57,4.57,0,0,0-.69-.54h0a3.8,3.8,0,0,0,.72.06,3.7,3.7,0,0,0,3.79-3.58,4.22,4.22,0,0,0-2.1-3.42c-.21-.19-1.83-1.46-2.08-1.63a459.27,459.27,0,0,1-1.39-1.09c-1.7-1.54-4.7-2.43-7.55-2.43-6.82,0-10.73,4-10.73,11v7.26C456.63,432.11,458,435.22,460.63,437.05Zm8.05-5.86v-2.27l.18.11a3.39,3.39,0,0,0,.34.31v2.06l-.51.15C468.69,431.43,468.68,431.32,468.68,431.19Zm1.19-10.62a3.5,3.5,0,0,1,1.83-.38,4.08,4.08,0,0,1,1.92.46,5.8,5.8,0,0,0-.95-.08Z" transform="translate(-196.02 -96.47)"/>
        <path class="cls-14" d="M463.14,427.93c0,3.15,1.1,5.13,4.4,5.13a6.2,6.2,0,0,0,3-.77v-5.72h-1.9a2.31,2.31,0,1,1,0-4.62h4c1.69,0,3,.81,3,2.57v8.1c0,3.44-4.55,4.91-8.32,4.91-6.41,0-9.35-3.81-9.35-9.6v-7.26c0-5.79,2.94-9.6,9.35-9.6,3.88,0,7.58,1.8,7.58,3.92a2.3,2.3,0,0,1-2.41,2.2,2.4,2.4,0,0,1-1.58-.55l-.37-.22a5.67,5.67,0,0,0-3-.88c-3.3,0-4.4,2-4.4,5.13Z" transform="translate(-196.02 -96.47)"/>
        <path class="cls-15" d="M470,423.23h4a4,4,0,0,1,1.55.29,2.78,2.78,0,0,0-2.83-1.57h-4a2.31,2.31,0,0,0-.86,4.45,2.24,2.24,0,0,1-.17-.86A2.35,2.35,0,0,1,470,423.23Z" transform="translate(-196.02 -96.47)"/>
        <path class="cls-15" d="M459.29,422c0-5.79,2.94-9.6,9.35-9.6a11.32,11.32,0,0,1,6,1.6c-.95-1.64-4.05-2.88-7.28-2.88-6.41,0-9.35,3.81-9.35,9.6v7.26c0,3.41,1,6.14,3.17,7.8a10.51,10.51,0,0,1-1.89-6.52Z" transform="translate(-196.02 -96.47)"/>
        <path class="cls-15" d="M468.82,434.34a6.2,6.2,0,0,0,3-.77v-5.72l-1.28-1.28v5.72a6.2,6.2,0,0,1-3,.77,5,5,0,0,1-2.43-.53C465.76,433.68,466.92,434.34,468.82,434.34Z" transform="translate(-196.02 -96.47)"/>
        <path class="cls-20" d="M401.78,438.15V416.38a3.71,3.71,0,0,0-1.81-3.11c-.21-.2-2.52-2-2.77-2.18a4.2,4.2,0,0,0-.7-.54,4,4,0,0,0-2.82-1.16,3.9,3.9,0,0,0-3.95,3.73v7.15h-.88v-3.89a3.7,3.7,0,0,0-1.82-3.11,3.66,3.66,0,0,0-.69-.54,4.07,4.07,0,0,0-.69-.55c-.21-.2-1.14-.93-1.39-1.09a4.57,4.57,0,0,0-.69-.54,4,4,0,0,0-2.83-1.16,3.84,3.84,0,0,0-3.94,3.73v21.76a8.89,8.89,0,0,0,3.19,4.25,4,4,0,0,0,.69.54,3.78,3.78,0,0,0,.7.55,4.12,4.12,0,0,0,.69.54,4,4,0,0,0,2.83,1.15,3.91,3.91,0,0,0,4-3.76V431h.88v3.89a3.76,3.76,0,0,0,1.83,3.15,4.07,4.07,0,0,0,.69.55,4.57,4.57,0,0,0,.69.54,4.14,4.14,0,0,0,.7.55,4.57,4.57,0,0,0,.69.54,3.57,3.57,0,0,0,.69.54,4.05,4.05,0,0,0,2.82,1.16A3.9,3.9,0,0,0,401.78,438.15Z" transform="translate(-196.02 -96.47)"/>
        <path class="cls-14" d="M393.68,437.27a2.54,2.54,0,0,1-2.57-2.39v-8.53h-7.8v8.53a2.52,2.52,0,0,1-2.57,2.39,2.49,2.49,0,0,1-2.56-2.39V413.12a2.48,2.48,0,0,1,2.56-2.35,2.51,2.51,0,0,1,2.57,2.35v8.54h7.8v-8.54a2.57,2.57,0,0,1,5.13,0v21.76A2.51,2.51,0,0,1,393.68,437.27Z" transform="translate(-196.02 -96.47)"/>
        <path class="cls-15" d="M379.46,414.4a2.48,2.48,0,0,1,2.56-2.35,2.55,2.55,0,0,1,1.11.25,2.61,2.61,0,0,0-2.39-1.53,2.48,2.48,0,0,0-2.56,2.35v21.76a2.39,2.39,0,0,0,1.46,2.15,2.12,2.12,0,0,1-.18-.87Z" transform="translate(-196.02 -96.47)"/>
        <path class="cls-15" d="M392.39,422.94V414.4a2.54,2.54,0,0,1,2.57-2.35,2.62,2.62,0,0,1,1.11.26,2.65,2.65,0,0,0-2.39-1.54,2.54,2.54,0,0,0-2.57,2.35v8.54h-7.8l1.28,1.28Z" transform="translate(-196.02 -96.47)"/>
        <path class="cls-15" d="M392.39,427.63l-1.28-1.28v8.53a2.44,2.44,0,0,0,1.47,2.14,2.11,2.11,0,0,1-.19-.86Z" transform="translate(-196.02 -96.47)"/>
        <path class="cls-21" d="M453.5,414a4.07,4.07,0,0,0-.69-.55,3.64,3.64,0,0,0-.7-.54,4.07,4.07,0,0,0-.69-.55,4,4,0,0,0-.69-.54,4.14,4.14,0,0,0-.7-.55,4,4,0,0,0-2.8-1.14,3.93,3.93,0,0,0-4,3.76v4.62l-1.8-3.12a4.34,4.34,0,0,0-1.28-1.28,4.21,4.21,0,0,0-.71-.55,4.07,4.07,0,0,0-.69-.55,4.65,4.65,0,0,0-.7-.54,4.07,4.07,0,0,0-.69-.55,4.34,4.34,0,0,0-.72-.56,4.44,4.44,0,0,0-3-1.23,3.88,3.88,0,0,0-4.06,3.87v21.62a3.74,3.74,0,0,0,1.8,3.17,3.35,3.35,0,0,0,.7.54,3.71,3.71,0,0,0,.69.55,4,4,0,0,0,.69.54,3.78,3.78,0,0,0,.7.55,4.12,4.12,0,0,0,.69.54,4,4,0,0,0,2.8,1.14,3.92,3.92,0,0,0,4-3.76v-4.55l1.79,3.11a3.93,3.93,0,0,0,1.26,1.24,4.57,4.57,0,0,0,.69.54,4.07,4.07,0,0,0,.69.55,4.2,4.2,0,0,0,.7.54,4.63,4.63,0,0,0,.69.55,7.52,7.52,0,0,0,3.76,1.78,3.94,3.94,0,0,0,4.09-3.87V417.18A3.72,3.72,0,0,0,453.5,414Z" transform="translate(-196.02 -96.47)"/>
        <path class="cls-14" d="M444.59,436.74l-8.5-14.8v13.7a2.55,2.55,0,0,1-2.6,2.39,2.46,2.46,0,0,1-2.53-2.39V414a2.53,2.53,0,0,1,2.68-2.49,3,3,0,0,1,2.49,1.36c3.26,5.64,5.13,9,8.5,14.88V413.91a2.55,2.55,0,0,1,2.6-2.38,2.46,2.46,0,0,1,2.53,2.38v21.62a2.55,2.55,0,0,1-2.71,2.5A3,3,0,0,1,444.59,436.74Z" transform="translate(-196.02 -96.47)"/>
        <path class="cls-15" d="M445.91,415.19a2.55,2.55,0,0,1,2.6-2.38,2.5,2.5,0,0,1,1.07.23,2.6,2.6,0,0,0-4.95.87v13.86l1.28,1.28Z" transform="translate(-196.02 -96.47)"/>
        <path class="cls-15" d="M432.24,415.3a2.52,2.52,0,0,1,2.68-2.49,3,3,0,0,1,1.37.35c-.06-.09-.11-.18-.16-.27a3,3,0,0,0-2.49-1.36A2.53,2.53,0,0,0,431,414v21.62a2.38,2.38,0,0,0,1.46,2.16,2.34,2.34,0,0,1-.18-.88Z" transform="translate(-196.02 -96.47)"/>
        <path class="cls-15" d="M436.09,421.94l8.5,14.8a2.66,2.66,0,0,0,1.09.95l-8.31-14.47Z" transform="translate(-196.02 -96.47)"/>
        <path class="cls-22" d="M345.9,426.82l5.33-8.47a1.19,1.19,0,0,0,.08-.16,4.3,4.3,0,0,0,.46-1.78,3.74,3.74,0,0,0-1.81-3.15,3.57,3.57,0,0,0-.69-.54,4.07,4.07,0,0,0-.69-.55,3.64,3.64,0,0,0-.7-.54,3.71,3.71,0,0,0-.69-.55,4,4,0,0,0-.69-.54,3.83,3.83,0,0,0-2.69-1.12,4.63,4.63,0,0,0-3.71,2.28l-1.91,3.15a5,5,0,0,0-1.51-1.55,4.58,4.58,0,0,0-.7-.55,5,5,0,0,0-.69-.54,4.31,4.31,0,0,0-.69-.54,4.58,4.58,0,0,0-.7-.55,4.31,4.31,0,0,0-.69-.54,4,4,0,0,0-2.78-1.16,3.86,3.86,0,0,0-3.83,3.69A4.31,4.31,0,0,0,327,415a.75.75,0,0,0,.07.12l5.36,8.46-5.88,9.38a4.1,4.1,0,0,0-.58,2,3.83,3.83,0,0,0,1.84,3.16,3.64,3.64,0,0,0,.7.54,4.07,4.07,0,0,0,.69.55,4.57,4.57,0,0,0,.69.54,4.14,4.14,0,0,0,.7.55,4.57,4.57,0,0,0,.69.54,3.87,3.87,0,0,0,6.09-.76,1.88,1.88,0,0,0,.16-.23l2.6-4.3.64,1.06a4.59,4.59,0,0,0,1.48,1.54,4,4,0,0,0,.69.55,4.48,4.48,0,0,0,.69.54,3.93,3.93,0,0,0,.7.54,4,4,0,0,0,.69.55,3.52,3.52,0,0,0,.69.54,3.85,3.85,0,0,0,2.77,1.12,4,4,0,0,0,3.83-3.77,4.09,4.09,0,0,0-.57-2Z" transform="translate(-196.02 -96.47)"/>
        <path class="cls-14" d="M332.23,435.82v0a2.67,2.67,0,0,1-2.35,1.5,2.55,2.55,0,0,1-2.49-2.38,2.85,2.85,0,0,1,.37-1.25l6.34-10.11-5.83-9.2a3,3,0,0,1-.29-1.24,2.47,2.47,0,0,1,2.45-2.31,3,3,0,0,1,2.53,1.68l4.14,6.82,4.14-6.82a3.27,3.27,0,0,1,2.57-1.68,2.43,2.43,0,0,1,2.42,2.34,3.19,3.19,0,0,1-.33,1.21l-5.79,9.2,6.34,10.11a2.85,2.85,0,0,1,.36,1.25,2.57,2.57,0,0,1-2.45,2.38,2.69,2.69,0,0,1-2.38-1.47l-4.88-8.06Z" transform="translate(-196.02 -96.47)"/>
        <path class="cls-15" d="M342.52,413.76a3.27,3.27,0,0,1,2.57-1.68,2.39,2.39,0,0,1,1,.2,2.48,2.48,0,0,0-2.24-1.48,3.27,3.27,0,0,0-2.57,1.68l-4.14,6.82,1.28,1.28Z" transform="translate(-196.02 -96.47)"/>
        <path class="cls-15" d="M329,434.94l6.34-10.11-5.83-9.2a3,3,0,0,1-.29-1.25,2.47,2.47,0,0,1,2.45-2.3,2.44,2.44,0,0,1,1.2.32,3,3,0,0,0-2.48-1.6,2.47,2.47,0,0,0-2.45,2.31,3,3,0,0,0,.29,1.24l5.83,9.2-6.34,10.11a2.85,2.85,0,0,0-.37,1.25,2.5,2.5,0,0,0,1.48,2.14,2,2,0,0,1-.2-.86A2.85,2.85,0,0,1,329,434.94Z" transform="translate(-196.02 -96.47)"/>
        <path class="cls-15" d="M337.1,427.76l4.88,8.06a3.11,3.11,0,0,0,1.23,1.21l-4.83-8Z" transform="translate(-196.02 -96.47)"/>
        <path class="cls-23" d="M419.91,439.53a4.5,4.5,0,0,0,.69.55,5.22,5.22,0,0,0,.7.54,4.63,4.63,0,0,0,.69.55,5.13,5.13,0,0,0,.69.54,4.2,4.2,0,0,0,2.84,1.2,3.79,3.79,0,0,0,4-3.73,4.32,4.32,0,0,0-.19-1.27l-7.14-20.84a5.18,5.18,0,0,0-2-2.82,3.75,3.75,0,0,0-.69-.54,4.25,4.25,0,0,0-.7-.55,3.75,3.75,0,0,0-.69-.54,3.37,3.37,0,0,0-.69-.54,3.78,3.78,0,0,0-.7-.55,4,4,0,0,0-3-1.14,4.37,4.37,0,0,0-4.27,3.42l-7.14,20.83a4.37,4.37,0,0,0-.19,1.28,3.65,3.65,0,0,0,1.78,3.11,4.57,4.57,0,0,0,.69.54,4,4,0,0,0,.69.54,3.78,3.78,0,0,0,.7.55,4,4,0,0,0,.69.54,4.07,4.07,0,0,0,.69.55,4.2,4.2,0,0,0,2.94,1.16,4.11,4.11,0,0,0,3.73-2.68l.9-2.75h2.84a4.14,4.14,0,0,0,1.43,1.51A4.57,4.57,0,0,0,419.91,439.53Z" transform="translate(-196.02 -96.47)"/>
        <path class="cls-14" d="M408.58,436.54a2.75,2.75,0,0,1-2.42,1.72,2.46,2.46,0,0,1-2.64-2.34,3.16,3.16,0,0,1,.11-.81l7.14-20.85c.48-1.43,1.21-2.49,3-2.49s2.49,1,3,2.49l7.14,20.85a2.78,2.78,0,0,1,.11.81,2.41,2.41,0,0,1-2.64,2.34,2.81,2.81,0,0,1-2.49-1.72l-1.28-3.7h-7.81Zm5.16-17.74c-.14,1.14-2.6,9.86-2.6,9.86h5.13S413.89,419.94,413.74,418.8Z" transform="translate(-196.02 -96.47)"/>
        <path class="cls-15" d="M413.74,418.8c.36,1.83,2.53,9.86,2.53,9.86h-5.06l1.21,1.28h5.13l-3.23-10.63Z" transform="translate(-196.02 -96.47)"/>
        <path class="cls-15" d="M404.91,436.39l7.14-20.85c.48-1.43,1.21-2.49,3-2.49a3.11,3.11,0,0,1,1.32.26,2.69,2.69,0,0,0-2.6-1.54c-1.76,0-2.49,1.06-3,2.49l-7.14,20.85a3.16,3.16,0,0,0-.11.81A2.28,2.28,0,0,0,405,438a2.44,2.44,0,0,1-.15-.82A3.16,3.16,0,0,1,404.91,436.39Z" transform="translate(-196.02 -96.47)"/>
        <path class="cls-15" d="M420.15,437.82l-1.28-3.7-1.28-1.28,1.28,3.7a2.71,2.71,0,0,0,1.34,1.43Z" transform="translate(-196.02 -96.47)"/>
        <path class="cls-24" d="M326.39,437.43a3.61,3.61,0,0,0-1.79-3c-.21-.21-1.83-1.48-2.08-1.64a4.57,4.57,0,0,0-.69-.54,4.08,4.08,0,0,0-.7-.54,4,4,0,0,0-2.22-1.11h2.47a3.79,3.79,0,0,0,3.91-3.73,3.69,3.69,0,0,0-1.8-3.08,3.57,3.57,0,0,0-.69-.54c-.21-.21-1.83-1.48-2.08-1.64a4.08,4.08,0,0,0-.7-.54,3.87,3.87,0,0,0-1.82-1h3.88a3.66,3.66,0,0,0,2.12-6.81c-.21-.2-2.52-2-2.78-2.17a4.07,4.07,0,0,0-.69-.55,4,4,0,0,0-2.81-1.16H308a4.16,4.16,0,0,0-4.21,4V434a3.58,3.58,0,0,0,1.71,3.23,459.27,459.27,0,0,0,1.39,1.09c.2.21,1.82,1.48,2.08,1.64a5.16,5.16,0,0,0,3.77,1.29h9.71A3.87,3.87,0,0,0,326.39,437.43Z" transform="translate(-196.02 -96.47)"/>
        <path class="cls-14" d="M318.28,436.55h-9.71c-1.79,0-3.41-.62-3.41-2.6V413.32a2.78,2.78,0,0,1,2.83-2.6h9.93a2.51,2.51,0,0,1,2.56,2.38,2.4,2.4,0,0,1-2.56,2.27h-7.63v5.9h6.93a2.47,2.47,0,0,1,2.53,2.31,2.4,2.4,0,0,1-2.53,2.34h-6.93v6h8a2.34,2.34,0,1,1,0,4.65Z" transform="translate(-196.02 -96.47)"/>
        <path class="cls-15" d="M306.44,414.6a2.78,2.78,0,0,1,2.83-2.6h9.93a2.56,2.56,0,0,1,1.1.24,2.61,2.61,0,0,0-2.38-1.52H308a2.78,2.78,0,0,0-2.83,2.6V434a2.26,2.26,0,0,0,1.44,2.25,2.86,2.86,0,0,1-.16-1Z" transform="translate(-196.02 -96.47)"/>
        <path class="cls-15" d="M318.5,422.55a2.71,2.71,0,0,1,1.09.24,2.59,2.59,0,0,0-2.37-1.52h-6.93l1.28,1.28Z" transform="translate(-196.02 -96.47)"/>
        <path class="cls-15" d="M319.56,433.18a2.75,2.75,0,0,1,1.14.25,2.62,2.62,0,0,0-2.42-1.53h-8l1.28,1.28Z" transform="translate(-196.02 -96.47)"/>
        <path class="cls-25" d="M504.66,438.79a3.63,3.63,0,0,0-1.79-3c-.21-.2-1.83-1.48-2.08-1.63a4.07,4.07,0,0,0-.69-.55,4.57,4.57,0,0,0-.69-.54,4.16,4.16,0,0,0-2.22-1.11h2.46a3.77,3.77,0,0,0,3.91-3.72,3.68,3.68,0,0,0-1.8-3.09,4.57,4.57,0,0,0-.69-.54c-.21-.2-1.83-1.48-2.08-1.63a4.07,4.07,0,0,0-.69-.55,4.14,4.14,0,0,0-1.83-1h3.88a3.65,3.65,0,0,0,2.12-6.8c-.21-.21-2.52-2-2.77-2.18a3.73,3.73,0,0,0-.7-.54,4,4,0,0,0-2.81-1.16h-9.93a4.15,4.15,0,0,0-4.2,4V435.3a3.59,3.59,0,0,0,1.71,3.24,3.37,3.37,0,0,0,.69.54,3.71,3.71,0,0,0,.69.55c.21.2,1.83,1.47,2.08,1.63a5.17,5.17,0,0,0,3.77,1.29h9.72A3.86,3.86,0,0,0,504.66,438.79Z" transform="translate(-196.02 -96.47)"/>
        <path class="cls-14" d="M496.56,437.9h-9.72c-1.79,0-3.4-.62-3.4-2.6V414.67a2.79,2.79,0,0,1,2.82-2.6h9.93a2.51,2.51,0,0,1,2.56,2.38,2.4,2.4,0,0,1-2.56,2.27h-7.62v5.9h6.92a2.47,2.47,0,0,1,2.53,2.31,2.41,2.41,0,0,1-2.53,2.35h-6.92v6h8a2.34,2.34,0,1,1,0,4.65Z" transform="translate(-196.02 -96.47)"/>
        <path class="cls-15" d="M484.72,416a2.79,2.79,0,0,1,2.82-2.6h9.93a2.68,2.68,0,0,1,1.1.24,2.61,2.61,0,0,0-2.38-1.52h-9.93a2.79,2.79,0,0,0-2.82,2.6V435.3a2.26,2.26,0,0,0,1.44,2.26,2.69,2.69,0,0,1-.16-1Z" transform="translate(-196.02 -96.47)"/>
        <path class="cls-15" d="M496.77,423.9a2.56,2.56,0,0,1,1.09.25,2.59,2.59,0,0,0-2.37-1.53h-6.92l1.28,1.28Z" transform="translate(-196.02 -96.47)"/>
        <path class="cls-15" d="M497.84,434.53a2.7,2.7,0,0,1,1.13.25,2.63,2.63,0,0,0-2.41-1.53h-8l1.28,1.28Z" transform="translate(-196.02 -96.47)"/>
    </g>
</svg>